<?xml version="1.0" encoding="iso-8859-1"?>
<!-- Generator: Adobe Illustrator 19.0.0, SVG Export Plug-In . SVG Version: 6.00 Build 0)  -->
<svg version="1.1" id="Layer_1" xmlns="http://www.w3.org/2000/svg" xmlns:xlink="http://www.w3.org/1999/xlink" x="0px" y="0px"
	 viewBox="0 0 496.159 496.159" style="enable-background:new 0 0 496.159 496.159;" xml:space="preserve">
<path style="fill:#A3D5E0;" d="M248.083,0.003C111.071,0.003,0,111.063,0,248.085c0,137.001,111.07,248.07,248.083,248.07
	c137.006,0,248.076-111.069,248.076-248.07C496.159,111.062,385.089,0.003,248.083,0.003z"/>
<g>
	<path style="fill:#327F87;" d="M359.116,294.886h-222c-3.59,0-6.5,2.91-6.5,6.5s2.91,6.5,6.5,6.5h222c3.59,0,6.5-2.91,6.5-6.5
		S362.705,294.886,359.116,294.886z"/>
	<path style="fill:#327F87;" d="M190.567,132.378c-3.043-1.905-7.053-0.984-8.959,2.057l-104,166
		c-1.906,3.042-0.985,7.054,2.057,8.959c1.073,0.672,2.266,0.993,3.445,0.993c2.165,0,4.281-1.081,5.515-3.05l104-166
		C194.53,138.295,193.609,134.284,190.567,132.378z"/>
	<path style="fill:#327F87;" d="M418.124,300.435l-104-166c-1.906-3.042-5.917-3.964-8.959-2.057
		c-3.042,1.906-3.963,5.917-2.057,8.959l104,166c1.234,1.969,3.35,3.05,5.515,3.05c1.179,0,2.372-0.321,3.445-0.993
		C419.109,307.489,420.03,303.477,418.124,300.435z"/>
</g>
<ellipse style="fill:#3E959E;" cx="248.08" cy="187.419" rx="66" ry="22.957"/>
<g>
	<ellipse style="fill:#48A1AF;" cx="248.08" cy="185.429" rx="66" ry="22.957"/>
	<ellipse style="fill:#48A1AF;" cx="248.08" cy="155.779" rx="66" ry="22.957"/>
	<rect x="182.08" y="154.939" style="fill:#48A1AF;" width="131.94" height="31.05"/>
</g>
<ellipse style="fill:#57B7C1;" cx="248.08" cy="155.779" rx="59.49" ry="20.693"/>
<ellipse style="fill:#3E959E;" cx="248.08" cy="154.179" rx="66" ry="22.957"/>
<g>
	<ellipse style="fill:#48A1AF;" cx="248.08" cy="152.189" rx="66" ry="22.957"/>
	<ellipse style="fill:#48A1AF;" cx="248.08" cy="122.539" rx="66" ry="22.957"/>
	<rect x="182.08" y="121.699" style="fill:#48A1AF;" width="131.94" height="31.05"/>
</g>
<ellipse style="fill:#57B7C1;" cx="248.08" cy="122.539" rx="59.49" ry="20.693"/>
<ellipse style="fill:#3E959E;" cx="248.08" cy="120.379" rx="66" ry="22.957"/>
<g>
	<ellipse style="fill:#48A1AF;" cx="248.08" cy="118.389" rx="66" ry="22.956"/>
	<ellipse style="fill:#48A1AF;" cx="248.08" cy="88.739" rx="66" ry="22.957"/>
	<rect x="182.08" y="87.899" style="fill:#48A1AF;" width="131.94" height="31.05"/>
</g>
<ellipse style="fill:#57B7C1;" cx="248.08" cy="88.739" rx="59.49" ry="20.693"/>
<ellipse style="fill:#3E959E;" cx="139.58" cy="347.419" rx="66" ry="22.957"/>
<g>
	<ellipse style="fill:#48A1AF;" cx="139.58" cy="345.429" rx="66" ry="22.957"/>
	<ellipse style="fill:#48A1AF;" cx="139.58" cy="315.779" rx="66" ry="22.957"/>
	<rect x="73.58" y="314.939" style="fill:#48A1AF;" width="131.94" height="31.05"/>
</g>
<ellipse style="fill:#57B7C1;" cx="139.58" cy="315.779" rx="59.49" ry="20.693"/>
<ellipse style="fill:#3E959E;" cx="139.58" cy="314.179" rx="66" ry="22.957"/>
<g>
	<ellipse style="fill:#48A1AF;" cx="139.58" cy="312.189" rx="66" ry="22.957"/>
	<ellipse style="fill:#48A1AF;" cx="139.58" cy="282.539" rx="66" ry="22.957"/>
	<rect x="73.58" y="281.699" style="fill:#48A1AF;" width="131.94" height="31.05"/>
</g>
<ellipse style="fill:#57B7C1;" cx="139.58" cy="282.539" rx="59.49" ry="20.693"/>
<ellipse style="fill:#3E959E;" cx="139.58" cy="280.379" rx="66" ry="22.957"/>
<g>
	<ellipse style="fill:#48A1AF;" cx="139.58" cy="278.389" rx="66" ry="22.956"/>
	<ellipse style="fill:#48A1AF;" cx="139.58" cy="248.739" rx="66" ry="22.957"/>
	<rect x="73.58" y="247.899" style="fill:#48A1AF;" width="131.94" height="31.05"/>
</g>
<ellipse style="fill:#57B7C1;" cx="139.58" cy="248.739" rx="59.49" ry="20.693"/>
<ellipse style="fill:#3E959E;" cx="356.58" cy="347.419" rx="66" ry="22.957"/>
<g>
	<ellipse style="fill:#48A1AF;" cx="356.58" cy="345.429" rx="66" ry="22.957"/>
	<ellipse style="fill:#48A1AF;" cx="356.58" cy="315.779" rx="66" ry="22.957"/>
	<rect x="290.58" y="314.939" style="fill:#48A1AF;" width="131.94" height="31.05"/>
</g>
<ellipse style="fill:#57B7C1;" cx="356.58" cy="315.779" rx="59.49" ry="20.693"/>
<ellipse style="fill:#3E959E;" cx="356.58" cy="314.179" rx="66" ry="22.957"/>
<g>
	<ellipse style="fill:#48A1AF;" cx="356.58" cy="312.189" rx="66" ry="22.957"/>
	<ellipse style="fill:#48A1AF;" cx="356.58" cy="282.539" rx="66" ry="22.957"/>
	<rect x="290.58" y="281.699" style="fill:#48A1AF;" width="131.94" height="31.05"/>
</g>
<ellipse style="fill:#57B7C1;" cx="356.58" cy="282.539" rx="59.49" ry="20.693"/>
<ellipse style="fill:#3E959E;" cx="356.58" cy="280.379" rx="66" ry="22.957"/>
<g>
	<ellipse style="fill:#48A1AF;" cx="356.58" cy="278.389" rx="66" ry="22.956"/>
	<ellipse style="fill:#48A1AF;" cx="356.58" cy="248.739" rx="66" ry="22.957"/>
	<rect x="290.58" y="247.899" style="fill:#48A1AF;" width="131.94" height="31.05"/>
</g>
<ellipse style="fill:#57B7C1;" cx="356.58" cy="248.739" rx="59.49" ry="20.693"/>
<g>
</g>
<g>
</g>
<g>
</g>
<g>
</g>
<g>
</g>
<g>
</g>
<g>
</g>
<g>
</g>
<g>
</g>
<g>
</g>
<g>
</g>
<g>
</g>
<g>
</g>
<g>
</g>
<g>
</g>
</svg>
